<svg xmlns="http://www.w3.org/2000/svg" xml:space="preserve" id="Layer_1" x="0" y="0" version="1.1" viewBox="0 0 143 143" width="64" height="64"><style>.st0{fill:none}.st1{fill:#0063a3}</style><path d="M17.3 12.5h110v117.3h-110V12.5z" class="st0"/><path d="M99.3 112.9c0-4.4 3.5-8.1 7.9-8.1h.2c4.4-.1 8 3.4 8 7.8v.2c0 10.9-16.1 10.9-16.1.1zm14.7 0c0-9-13.3-9-13.3 0s13.3 9.1 13.3 0zm-9.8-4.6c3.2 0 6.6-.5 6.6 2.7.1 1.2-.6 2.2-1.7 2.5l1.9 3.6h-1.9l-1.8-3.4H106v3.4h-1.8v-8.8zm4.9 2.8c0-1.5-1.6-1.3-3.1-1.3v2.5c1.5.1 3.1.4 3.1-1.2zm-82.8-8.8v27.5L50.2 116c-9.2-2-17.6-6.8-23.9-13.7zM50 27 26.3 13.4v27.3C32.6 33.8 40.9 29.1 50 27zm77.1 44.6-23.9-13.8c2.8 9 2.8 18.6-.1 27.6l24-13.8zM42 34.2c3.4-.8 10.5 0 14.3 1 3-2.4 7.5-3.8 12.1-4-8.9-1.5-18.1-.4-26.4 3zm45.5 50c-.6-5.2-1.8-10.4-3.7-15.3-8.2 3.7-18.3 1.3-25.1-4.5-5 5.2-9.4 10.8-13.3 16.9 11.5 9.3 30.3 11.8 42.1 2.9zm-48.4-2.1C29 71.8 25.5 56.7 28.7 45.1 15 61.3 16 85.4 31.1 100.3c1.9-6.4 4.6-12.5 8-18.2zm42.8-17.6C79.7 60 77 55.8 73.7 52c-4.1 2.7-7.9 5.7-11.5 9 6 5.1 14.1 6.1 19.7 3.5zm-7.6-18.9c2.7-2 5.7-3.6 8.9-4.9-6.5-6.5-16.9-6.4-21.4-3.5 4.6 2 8.9 4.9 12.5 8.4z" class="st1"/><path d="M42.8 85.5c-5 8.7-6.9 15.1-7.5 18.5 15 11.3 35.7 10.9 50.2-.9 1.6-4.2 2.4-8.7 2.3-13.2-13.9 8.2-33 5-45-4.4zm43.1-23.9c4.4-4.7 3.6-12.6.2-17.2-3 1.2-5.8 2.9-8.3 4.9 3.1 3.8 5.9 7.9 8.1 12.3zm7.7-10c.7 5.5-1.4 11-5.6 14.7 1.8 4.4 3.1 9 3.9 13.7 6-8 5.8-19.3 1.7-28.4zm-34.8 5.9c3.6-3.3 7.4-6.3 11.4-9.1-3.7-3.3-7.9-5.9-12.6-7.7-3.7 5.1-2.5 11.7 1.2 16.8zm33.7 28.8c.1 3.5 0 6.9-.5 10.3 6.3-8.1 9.3-18.3 8.5-28.5-.6 6.8-3.4 13.2-8 18.2zm-39.6-47c-5.3-1.3-10.8-1.3-16.1.1-8 11.4-4.3 28 5 38.4 4-6.1 8.5-11.8 13.6-17-4.8-5.8-6.7-15-2.5-21.5z" class="st1"/><path d="M142 1v141H1V1" class="st0"/></svg>